PathFileType  4	(X/Y/Z) C:\Users\antoi\Documents\MyRepositories\mobilecap\ResultsAnalysis
DataRate	CameraRate	NumFrames	NumMarkers	Units	OrigDataRate	OrigDataStartFrame	OrigNumFrames
100.0	100.0	4	51	mm	100.0	541	1441
Frame#	Time	r_knee			r_shank_antsup			r_ankle			r_calc			r_5meta			r_toe			L_knee			L_shank_antsup			L_ankle			L_calc			L_5meta			L_toe			r_sh2			r_sh3			r_sh4			L_sh2			L_sh3			r_thigh1			r_thigh2			r_thigh3			r_thigh4			r_thigh5			L_thigh1			L_thigh2			L_thigh3			L_thigh4			r.ASIS			r.PSIS			L.ASIS			L.PSIS			C7			R_Shoulder			L_Shoulder			R_Sternum			L_Sternum			R_humerus			R_elbow_med			R_elbow_lat			R_forearm			R_wrist_radius			R_wrist_ulna			L_humerus			L_elbow_med			L_elbow_lat			L_forearm			L_wrist_radius			L_wrist_ulna			R_HJC			L_HJC			R_HJC_reg			L_HJC_reg			
		X1	Y1	Z1	X2	Y2	Z2	X3	Y3	Z3	X4	Y4	Z4	X5	Y5	Z5	X6	Y6	Z6	X7	Y7	Z7	X8	Y8	Z8	X9	Y9	Z9	X10	Y10	Z10	X11	Y11	Z11	X12	Y12	Z12	X13	Y13	Z13	X14	Y14	Z14	X15	Y15	Z15	X16	Y16	Z16	X17	Y17	Z17	X18	Y18	Z18	X19	Y19	Z19	X20	Y20	Z20	X21	Y21	Z21	X22	Y22	Z22	X23	Y23	Z23	X24	Y24	Z24	X25	Y25	Z25	X26	Y26	Z26	X27	Y27	Z27	X28	Y28	Z28	X29	Y29	Z29	X30	Y30	Z30	X31	Y31	Z31	X32	Y32	Z32	X33	Y33	Z33	X34	Y34	Z34	X35	Y35	Z35	X36	Y36	Z36	X37	Y37	Z37	X38	Y38	Z38	X39	Y39	Z39	X40	Y40	Z40	X41	Y41	Z41	X42	Y42	Z42	X43	Y43	Z43	X44	Y44	Z44	X45	Y45	Z45	X46	Y46	Z46	X47	Y47	Z47	X48	Y48	Z48	X49	Y49	Z49	X50	Y50	Z50	X51	Y51	Z51	

541	5.40000000	-165.54288	522.12957	-412.81664	-122.67461	421.03651	-417.85766	-286.05139	120.07631	-423.91237	-369.73949	72.53816	-470.12996	-180.10992	50.01120	-370.14706	-118.71544	81.05709	-428.07266	-165.37138	521.91419	-831.15601	-161.31833	437.91235	-856.79329	-291.97468	123.45164	-834.56212	-377.65995	73.09901	-782.24453	-185.19516	51.56828	-867.56831	-126.61875	81.17803	-805.26173	-167.55196	320.20347	-390.80966	-178.34193	455.98620	-378.48481	-238.67379	356.79050	-368.78507	-247.15108	465.76458	-851.83273	-273.37192	346.56970	-856.86289	-326.80737	799.77289	-436.31269	-248.83589	726.85876	-428.31692	-266.46977	672.40130	-394.15062	-401.14961	716.47882	-426.09383	-311.15161	644.37915	-413.06796	-292.43827	783.14422	-816.17281	-191.78474	684.89019	-812.27773	-365.22339	707.64955	-849.88458	-269.79730	609.15518	-849.69846	-368.69415	927.07268	-508.84552	-545.99114	962.00763	-570.96296	-371.93755	923.33165	-750.11793	-552.48934	963.04612	-681.43934	-290.02075	1454.61021	-635.20857	-226.58679	1378.57290	-472.31520	-254.82362	1385.99070	-808.52298	-187.58855	1343.28675	-612.15620	-192.39452	1340.18843	-668.55338	-236.41205	1232.11813	-394.59374	-316.77381	1029.63181	-412.15789	-298.43996	1061.88202	-328.04501	-136.35139	1073.08782	-365.81538	-59.47014	1106.98031	-407.21876	-56.00964	1066.32159	-384.37118	-293.52236	1272.25616	-893.19397	-344.93716	1029.34864	-852.38229	-324.87372	1056.47404	-934.89769	-249.63954	1073.71548	-932.89351	-93.80169	1116.21349	-879.10473	-84.13151	1076.61816	-888.38947	-461.91640	821.39051	-522.13685	-469.56745	825.87149	-728.90750	-434.03267	853.09600	-539.32122	-443.38497	854.59127	-698.31274	
542	5.41000000	-164.37583	520.81260	-412.51636	-120.91298	419.97930	-417.62471	-285.84508	120.02133	-423.95181	-369.70674	72.48973	-470.12758	-180.04491	50.02605	-370.14421	-118.77704	81.00734	-428.06528	-164.29275	520.86862	-831.16601	-159.80834	437.19468	-856.81627	-291.84433	123.27555	-834.55685	-377.67561	73.05399	-782.30964	-185.15997	51.56023	-867.48112	-126.59709	81.12222	-805.18246	-166.11784	319.07698	-390.91423	-176.41381	455.09287	-378.25707	-236.81320	356.37200	-368.62408	-245.51530	465.34306	-851.73979	-271.91487	346.24375	-856.84836	-333.41544	793.07775	-435.92638	-251.93414	723.76518	-428.88976	-269.66672	667.48028	-394.04748	-405.44955	707.68869	-426.38288	-313.46357	638.54689	-412.60233	-298.40189	778.17617	-816.49542	-194.95911	682.84394	-812.51281	-369.00282	700.47828	-849.88744	-270.69016	604.75877	-849.42122	-373.93571	914.61803	-508.68444	-551.20584	951.97601	-571.06684	-377.70174	910.82051	-750.35923	-557.79898	953.16661	-681.38450	-286.64276	1439.89673	-635.09159	-224.02541	1363.26158	-472.38808	-252.18580	1371.13981	-808.51822	-185.40858	1327.22699	-612.24069	-190.31804	1324.24665	-668.64168	-234.06458	1217.35513	-394.47162	-313.23489	1014.58256	-411.69250	-295.28318	1047.43366	-327.44022	-133.35694	1059.10240	-365.44926	-56.64139	1093.01863	-406.91123	-52.96619	1052.46009	-383.95384	-291.31819	1257.98594	-893.50163	-342.35713	1014.45419	-853.04269	-322.50659	1042.29000	-935.81666	-247.31136	1059.56115	-933.40766	-91.80778	1102.00569	-878.90297	-82.03283	1062.41876	-888.01883	-468.87893	810.25595	-522.11382	-476.67885	814.75557	-728.87853	-440.46033	841.28553	-539.19646	-449.97822	843.00431	-698.44737	
543	5.42000000	-163.43848	519.62339	-412.15301	-119.44435	418.97791	-417.35154	-285.72941	119.91022	-423.91848	-369.65681	72.53315	-470.20215	-180.01628	49.97345	-370.15771	-118.73902	80.89757	-428.14172	-163.65581	519.89866	-831.19758	-158.52651	436.57778	-857.02295	-291.79364	123.09777	-834.53689	-377.69701	72.95469	-782.37070	-185.16162	51.54605	-867.47597	-126.62734	81.04261	-805.07765	-165.02557	318.11613	-390.87989	-174.64747	454.24115	-377.86073	-236.03146	355.48087	-368.36251	-244.07684	465.04521	-851.98064	-270.89788	345.84622	-856.86585	-340.19598	786.18376	-435.61205	-256.10763	720.12646	-429.05038	-273.21773	662.47668	-394.17532	-409.79483	698.62206	-427.09153	-315.92571	632.36229	-413.04256	-304.63509	772.97328	-817.31630	-198.46089	680.70675	-813.07510	-373.11591	693.04268	-849.87491	-271.92578	600.34102	-849.73683	-379.32374	901.92818	-508.51085	-556.44871	941.62682	-571.15417	-383.52517	898.19088	-750.80302	-563.19045	943.02414	-681.35573	-283.15941	1424.69705	-635.07146	-221.37360	1347.37526	-472.46789	-249.67863	1355.39937	-808.23657	-183.23882	1310.59994	-612.40569	-188.20818	1307.72441	-668.63050	-231.50168	1202.08155	-394.23698	-309.77890	999.01878	-410.82234	-291.87800	1032.25501	-326.63839	-130.06052	1044.30339	-364.95758	-53.54877	1078.65275	-406.67363	-49.60738	1038.15337	-383.56660	-289.08484	1243.09596	-893.70073	-338.46635	999.25970	-853.74761	-319.89982	1027.54779	-936.85567	-244.76412	1044.82023	-933.94378	-89.60084	1087.37831	-878.75625	-79.71836	1047.91639	-887.84441	-475.84192	798.85244	-522.20461	-483.80509	803.47720	-728.96047	-446.90520	829.16740	-539.10201	-456.67172	831.19170	-698.74647	
544	5.43000000	-162.66231	518.46752	-411.86066	-118.22547	418.11232	-417.06795	-285.66112	119.83270	-423.90858	-369.66718	72.57842	-470.29285	-180.01314	49.97109	-370.23853	-118.67590	80.80766	-428.23483	-163.28817	518.94539	-831.24696	-157.48978	436.04950	-857.15662	-291.73113	122.94086	-834.54757	-377.74568	72.85848	-782.43379	-185.16501	51.53750	-867.48793	-126.65362	80.97850	-805.02557	-164.21747	317.44158	-390.73448	-173.22451	453.51470	-377.44960	-235.61906	354.46873	-368.11106	-242.83941	464.71709	-852.20178	-270.21188	345.43214	-856.84163	-347.38914	779.04648	-435.19079	-261.56110	715.69754	-428.71824	-276.99901	657.47177	-394.16936	-414.29404	689.33102	-427.95323	-318.55893	626.03950	-413.76713	-311.19122	767.55585	-818.25752	-202.34026	678.53632	-813.89403	-377.41889	685.45142	-849.92997	-273.51861	595.91165	-849.97030	-384.71884	888.90821	-508.57148	-561.63089	931.10933	-571.32371	-389.30943	885.51934	-751.42043	-568.50119	932.76351	-681.45556	-279.61992	1409.03450	-635.08983	-218.71253	1330.80982	-472.69460	-247.21635	1338.82290	-807.48050	-181.14747	1293.50537	-612.49309	-186.15493	1290.69974	-668.55570	-228.78016	1186.21531	-394.15861	-306.24590	982.86242	-409.65347	-288.19717	1016.42981	-325.70146	-126.45359	1029.00674	-364.38963	-50.21102	1063.90411	-406.43321	-46.00141	1023.46018	-383.28659	-286.83703	1227.59846	-893.60260	-334.05533	984.16612	-854.12483	-317.09344	1012.32455	-937.89284	-241.99677	1029.55875	-934.48564	-87.18488	1072.41053	-878.50758	-77.21482	1033.06815	-887.74224	-482.79110	787.19059	-522.58014	-490.91919	792.16979	-729.32112	-453.39170	816.90715	-539.26969	-463.37232	819.31062	-699.26531	
